<svg xmlns="http://www.w3.org/2000/svg" xmlns:xlink="http://www.w3.org/1999/xlink" viewBox="0 0 430 430" width="430" height="430" preserveAspectRatio="xMidYMid meet" style="width: 100%; height: 100%; transform: translate3d(0px, 0px, 0px); content-visibility: visible;"><defs><clipPath id="__lottie_element_16"><rect width="430" height="430" x="0" y="0"/></clipPath><clipPath id="__lottie_element_18"><path d="M0,0 L430,0 L430,430 L0,430z"/></clipPath></defs><g clip-path="url(#__lottie_element_16)"><g clip-path="url(#__lottie_element_18)" transform="matrix(1,0,0,1,0,0)" opacity="1" style="display: block;"><g transform="matrix(4,0,0,4,230.00099182128906,187.00100708007812)" opacity="1" style="display: block;"><g opacity="0" transform="matrix(1,0,0,1,-11.125,14.625)"><path stroke-linecap="round" stroke-linejoin="round" fill-opacity="0" class="secondary" stroke="rgb(8,168,138)" stroke-opacity="1" stroke-width="4.62" d="M0 0"/></g><g opacity="0" transform="matrix(1,0,0,1,-11.125,14.625)"><path stroke-linecap="round" stroke-linejoin="round" fill-opacity="0" class="secondary" stroke="rgb(8,168,138)" stroke-opacity="1" stroke-width="4.62" d="M0 0"/></g><g opacity="0" transform="matrix(1,0,0,1,-11.125,14.625)"><path stroke-linecap="round" stroke-linejoin="round" fill-opacity="0" class="secondary" stroke="rgb(8,168,138)" stroke-opacity="1" stroke-width="4.62" d="M0 0"/></g></g><g transform="matrix(1,0,0,1,218.00099182128906,215.00100708007812)" opacity="1" style="display: block;"><g opacity="1" transform="matrix(1,0,0,1,0,0)"><path stroke-linecap="round" stroke-linejoin="round" fill-opacity="0" class="primary" stroke="rgb(18,19,49)" stroke-opacity="1" stroke-width="18.48" d=" M-103.92900085449219,-159.52999877929688 C-108.26499938964844,-165.5 -130.41400146484375,-144.55599975585938 -153.35800170898438,-112.79199981689453 C-153.35800170898438,-112.79199981689453 -153.35800170898438,-112.79199981689453 -153.35800170898438,-112.79199981689453 C-176.302001953125,-81.02799987792969 -156.22300720214844,-16.52899932861328 -108.5469970703125,31.14699935913086 C-108.5469970703125,31.14699935913086 -34.25600051879883,105.43800354003906 -34.25600051879883,105.43800354003906 C13.420000076293945,153.11399841308594 77.7249984741211,173 109.2509994506836,149.81700134277344 C109.2509994506836,149.81700134277344 109.2509994506836,149.81700134277344 109.2509994506836,149.81700134277344 C140.77699279785156,126.63400268554688 162.30499267578125,104.84400177001953 157.29200744628906,101.18900299072266 C157.29200744628906,101.18900299072266 157.29200744628906,101.18900299072266 157.29200744628906,101.18900299072266 C152.2790069580078,97.53399658203125 137.11300659179688,86.47599792480469 123.44599914550781,76.51100158691406 C123.44599914550781,76.51100158691406 123.44599914550781,76.51100158691406 123.44599914550781,76.51100158691406 C109.77899932861328,66.5459976196289 95.26899719238281,55.96500015258789 91.06400299072266,52.89899826049805 C91.06400299072266,52.89899826049805 91.06400299072266,52.89899826049805 91.06400299072266,52.89899826049805 C86.85900115966797,49.832000732421875 75.31600189208984,55.47100067138672 65.30400085449219,65.48300170898438 C65.30400085449219,65.48300170898438 65.30400085449219,65.48300170898438 65.30400085449219,65.48300170898438 C55.29199981689453,75.49500274658203 43.486000061035156,79.94599914550781 38.957000732421875,75.41699981689453 C38.957000732421875,75.41699981689453 38.957000732421875,75.41699981689453 38.957000732421875,75.41699981689453 C34.428001403808594,70.88800048828125 8.493000030517578,44.95399856567383 -18.92099952697754,17.540000915527344 C-18.92099952697754,17.540000915527344 -18.92099952697754,17.540000915527344 -18.92099952697754,17.540000915527344 C-46.334999084472656,-9.87399959564209 -73.04399871826172,-36.58300018310547 -78.5270004272461,-42.066001892089844 C-78.5270004272461,-42.066001892089844 -78.5270004272461,-42.066001892089844 -78.5270004272461,-42.066001892089844 C-84.01000213623047,-47.54899978637695 -80.33200073242188,-60.12900161743164 -70.31999969482422,-70.14099884033203 C-70.31999969482422,-70.14099884033203 -70.31999969482422,-70.14099884033203 -70.31999969482422,-70.14099884033203 C-60.30799865722656,-80.15299987792969 -54.95600128173828,-92.1050033569336 -58.375,-96.81300354003906 C-58.375,-96.81300354003906 -58.375,-96.81300354003906 -58.375,-96.81300354003906 C-61.79399871826172,-101.52100372314453 -71.62899780273438,-115.06099700927734 -80.3219985961914,-127.02899932861328 C-80.3219985961914,-127.02899932861328 -80.3219985961914,-127.02899932861328 -80.3219985961914,-127.02899932861328 C-89.01499938964844,-138.9969940185547 -99.59300231933594,-153.55999755859375 -103.92900085449219,-159.52999877929688 C-103.92900085449219,-159.52999877929688 -103.92900085449219,-159.52999877929688 -103.92900085449219,-159.52999877929688z"/></g></g></g></g></svg>